<?xml version="1.0" standalone="no"?>
<!DOCTYPE svg PUBLIC "-//W3C//DTD SVG 20010904//EN"
 "http://www.w3.org/TR/2001/REC-SVG-20010904/DTD/svg10.dtd">
<svg version="1.0" xmlns="http://www.w3.org/2000/svg"
 width="500.000000pt" height="500.000000pt" viewBox="0 0 500.000000 500.000000"
 preserveAspectRatio="xMidYMid meet">

<g transform="translate(0.000000,500.000000) scale(0.100000,-0.100000)"
fill="#000000" stroke="none">
<path d="M1980 4084 c-121 -32 -214 -113 -275 -238 -166 -337 94 -748 435
-687 228 41 388 284 352 536 -28 195 -154 345 -327 390 -72 18 -113 18 -185
-1z"/>
<path d="M3620 4080 c-12 -12 -20 -33 -20 -55 0 -34 27 -75 50 -75 22 0 50 41
50 73 0 37 -24 77 -46 77 -8 0 -23 -9 -34 -20z"/>
<path d="M3336 3964 c-24 -24 -19 -47 18 -83 41 -40 81 -38 92 5 5 20 0 33
-27 60 -36 37 -59 42 -83 18z"/>
<path d="M3881 3946 c-27 -27 -32 -40 -27 -60 11 -43 51 -45 92 -5 37 36 42
59 18 83 -24 24 -47 19 -83 -18z"/>
<path d="M3620 3830 c-15 -15 -20 -33 -20 -75 l0 -55 -55 0 c-42 0 -60 -5 -75
-20 -11 -11 -20 -24 -20 -30 0 -5 9 -19 20 -30 17 -17 33 -20 105 -20 117 0
125 9 125 129 0 82 -2 91 -22 105 -29 20 -34 20 -58 -4z"/>
<path d="M3220 3680 c-11 -11 -20 -24 -20 -30 0 -23 41 -50 75 -50 34 0 75 27
75 50 0 23 -41 50 -75 50 -22 0 -43 -8 -55 -20z"/>
<path d="M3970 3680 c-11 -11 -20 -24 -20 -30 0 -23 41 -50 75 -50 22 0 43 8
55 20 24 24 24 29 4 58 -20 29 -85 31 -114 2z"/>
<path d="M3351 3416 c-27 -27 -32 -40 -27 -60 11 -43 51 -45 92 -5 37 36 42
59 18 83 -24 24 -47 19 -83 -18z"/>
<path d="M3866 3434 c-24 -24 -19 -47 18 -83 41 -40 81 -38 92 5 5 20 0 33
-27 60 -36 37 -59 42 -83 18z"/>
<path d="M1509 3333 c-60 -30 -139 -105 -158 -151 -12 -28 -17 -30 -83 -37
-63 -6 -76 -11 -105 -40 l-33 -33 0 -125 0 -125 -35 -26 c-53 -41 -65 -73 -65
-171 0 -98 12 -130 65 -171 l35 -26 0 -120 c0 -180 27 -213 169 -206 46 2 76
-1 76 -7 -1 -5 -5 -40 -9 -77 l-8 -67 -178 -3 c-162 -3 -181 -5 -206 -24 -50
-37 -69 -72 -69 -124 0 -52 19 -87 69 -124 27 -21 31 -21 1499 -24 810 -1
1487 0 1505 3 43 8 98 57 112 101 23 69 -16 151 -87 180 -31 13 -33 17 -33 64
l0 50 34 0 c59 0 66 16 66 150 0 134 -7 150 -66 150 l-34 0 0 84 c0 64 -4 88
-16 100 -13 14 -62 16 -379 16 -317 0 -366 -2 -379 -16 -13 -12 -16 -40 -16
-134 0 -134 7 -150 66 -150 l34 0 0 -50 0 -50 -34 0 c-55 0 -66 -19 -66 -116
l0 -84 -193 0 -193 0 -11 73 c-5 39 -8 74 -6 77 2 2 37 3 78 1 139 -5 165 28
165 207 l0 120 35 26 c53 41 65 73 65 171 0 98 -12 130 -65 171 l-35 26 0 125
0 125 -33 33 c-29 29 -42 34 -105 40 -66 7 -71 9 -83 37 -28 68 -173 178 -233
178 -26 0 -75 -78 -54 -84 78 -22 106 -35 144 -69 24 -21 44 -44 44 -51 0 -8
-30 -17 -85 -25 -174 -26 -367 -114 -489 -223 l-53 -47 -29 30 c-33 34 -152
118 -209 146 -77 39 -191 74 -295 92 l-105 18 50 49 c45 45 66 55 153 80 21 6
-28 84 -54 84 -11 0 -45 -12 -75 -27z m108 -317 c151 -42 315 -136 390 -225
23 -26 23 -26 23 -418 0 -216 -2 -393 -5 -393 -2 0 -33 20 -68 45 -162 113
-328 163 -572 173 l-160 7 -3 111 -3 111 36 27 c53 41 65 72 65 171 0 98 -12
130 -65 171 l-35 26 0 108 c0 58 3 110 8 114 4 5 72 6 152 3 113 -4 166 -11
237 -31z m1311 -82 l3 -111 -36 -27 c-53 -41 -65 -72 -65 -171 0 -99 12 -130
65 -171 l36 -27 -3 -111 -3 -111 -160 -7 c-244 -10 -410 -60 -572 -173 -35
-25 -66 -45 -68 -45 -3 0 -5 177 -5 393 0 392 0 392 23 418 72 85 238 183 373
220 117 32 158 37 289 35 l120 -1 3 -111z m715 -483 l237 -1 0 -50 0 -50 -305
0 -305 0 0 49 0 50 38 3 c20 2 51 3 67 2 17 -1 137 -2 268 -3z m-1985 -387
c81 -24 177 -67 217 -98 18 -14 0 -15 -204 -16 l-223 0 5 23 c3 12 9 46 13 75
l7 53 51 -6 c28 -4 88 -18 134 -31z m1026 -16 c4 -29 10 -63 13 -75 l5 -23
-223 0 c-249 1 -247 0 -129 59 65 33 133 57 221 76 106 22 105 23 113 -37z
m1196 -48 l0 -50 -305 0 -305 0 0 50 0 50 305 0 305 0 0 -50z m108 -162 c7 -7
12 -24 12 -38 0 -14 -5 -31 -12 -38 -17 -17 -2959 -17 -2976 0 -15 15 -15 61
0 76 17 17 2959 17 2976 0z"/>
<path d="M3620 3330 c-12 -12 -20 -33 -20 -55 0 -34 27 -75 50 -75 23 0 50 41
50 75 0 34 -27 75 -50 75 -5 0 -19 -9 -30 -20z"/>
<path d="M1050 1245 c0 -292 1 -306 20 -325 20 -20 33 -20 1430 -20 1400 0
1410 0 1430 20 20 20 20 31 18 323 l-3 302 -1447 3 -1448 2 0 -305z"/>
</g>
</svg>
